<svg xmlns="http://www.w3.org/2000/svg">

  <symbol id="github" viewBox="0 0 438.549 438.549">
  <title>github</title>
  <path d="M409.132,114.573c-19.608-33.596-46.205-60.194-79.798-79.8C295.736,15.166,259.057,5.365,219.271,5.365 c-39.781,0-76.472,9.804-110.063,29.408c-33.596,19.605-60.192,46.204-79.8,79.8C9.803,148.168,0,184.854,0,224.63 c0,47.78,13.94,90.745,41.827,128.906c27.884,38.164,63.906,64.572,108.063,79.227c5.14,0.954,8.945,0.283,11.419-1.996 c2.475-2.282,3.711-5.14,3.711-8.562c0-0.571-0.049-5.708-0.144-15.417c-0.098-9.709-0.144-18.179-0.144-25.406l-6.567,1.136 c-4.187,0.767-9.469,1.092-15.846,1c-6.374-0.089-12.991-0.757-19.842-1.999c-6.854-1.231-13.229-4.086-19.13-8.559 c-5.898-4.473-10.085-10.328-12.56-17.556l-2.855-6.57c-1.903-4.374-4.899-9.233-8.992-14.559 c-4.093-5.331-8.232-8.945-12.419-10.848l-1.999-1.431c-1.332-0.951-2.568-2.098-3.711-3.429c-1.142-1.331-1.997-2.663-2.568-3.997 c-0.572-1.335-0.098-2.43,1.427-3.289c1.525-0.859,4.281-1.276,8.28-1.276l5.708,0.853c3.807,0.763,8.516,3.042,14.133,6.851 c5.614,3.806,10.229,8.754,13.846,14.842c4.38,7.806,9.657,13.754,15.846,17.847c6.184,4.093,12.419,6.136,18.699,6.136 c6.28,0,11.704-0.476,16.274-1.423c4.565-0.952,8.848-2.383,12.847-4.285c1.713-12.758,6.377-22.559,13.988-29.41 c-10.848-1.14-20.601-2.857-29.264-5.14c-8.658-2.286-17.605-5.996-26.835-11.14c-9.235-5.137-16.896-11.516-22.985-19.126 c-6.09-7.614-11.088-17.61-14.987-29.979c-3.901-12.374-5.852-26.648-5.852-42.826c0-23.035,7.52-42.637,22.557-58.817 c-7.044-17.318-6.379-36.732,1.997-58.24c5.52-1.715,13.706-0.428,24.554,3.853c10.85,4.283,18.794,7.952,23.84,10.994 c5.046,3.041,9.089,5.618,12.135,7.708c17.705-4.947,35.976-7.421,54.818-7.421s37.117,2.474,54.823,7.421l10.849-6.849 c7.419-4.57,16.18-8.758,26.262-12.565c10.088-3.805,17.802-4.853,23.134-3.138c8.562,21.509,9.325,40.922,2.279,58.24 c15.036,16.18,22.559,35.787,22.559,58.817c0,16.178-1.958,30.497-5.853,42.966c-3.9,12.471-8.941,22.457-15.125,29.979 c-6.191,7.521-13.901,13.85-23.131,18.986c-9.232,5.14-18.182,8.85-26.84,11.136c-8.662,2.286-18.415,4.004-29.263,5.146 c9.894,8.562,14.842,22.077,14.842,40.539v60.237c0,3.422,1.19,6.279,3.572,8.562c2.379,2.279,6.136,2.95,11.276,1.995 c44.163-14.653,80.185-41.062,108.068-79.226c27.88-38.161,41.825-81.126,41.825-128.906 C438.536,184.851,428.728,148.168,409.132,114.573z"/></symbol>

  <symbol id="linkedin" viewBox="0 0 438.536 438.536">
  <title>linkedin</title>
  <path d="M414.41,24.123C398.333,8.042,378.963,0,356.315,0H82.228C59.58,0,40.21,8.042,24.126,24.123 C8.045,40.207,0.003,59.576,0.003,82.225v274.084c0,22.647,8.042,42.018,24.123,58.102c16.084,16.084,35.454,24.126,58.102,24.126 h274.084c22.648,0,42.018-8.042,58.095-24.126c16.084-16.084,24.126-35.454,24.126-58.102V82.225 C438.532,59.576,430.49,40.204,414.41,24.123z M133.618,367.157H67.666V169.016h65.952V367.157z M127.626,132.332 c-6.851,6.567-15.893,9.851-27.124,9.851h-0.288c-10.848,0-19.648-3.284-26.407-9.851c-6.76-6.567-10.138-14.703-10.138-24.41 c0-9.897,3.476-18.083,10.421-24.556c6.95-6.471,15.942-9.708,26.98-9.708c11.039,0,19.89,3.237,26.553,9.708 c6.661,6.473,10.088,14.659,10.277,24.556C137.899,117.625,134.477,125.761,127.626,132.332z M370.873,367.157h-65.952v-105.92 c0-29.879-11.036-44.823-33.116-44.823c-8.374,0-15.42,2.331-21.128,6.995c-5.715,4.661-9.996,10.324-12.847,16.991 c-1.335,3.422-1.999,8.75-1.999,15.981v110.775h-65.952c0.571-119.529,0.571-185.579,0-198.142h65.952v27.974 c13.867-21.681,33.558-32.544,59.101-32.544c22.84,0,41.21,7.52,55.104,22.554c13.895,15.037,20.841,37.214,20.841,66.519v113.64 H370.873z"/></symbol>

  <symbol id="codepen" viewBox="0 0 31.665 31.665">
  <title>codepen</title>
  <path d="M16.878,0.415c-0.854-0.565-1.968-0.552-2.809,0.034L1.485,9.214c-0.671,0.468-1.071,1.233-1.071,2.052v9.444 c0,0.84,0.421,1.623,1.122,2.086l12.79,8.455c0.836,0.553,1.922,0.553,2.758,0l13.044-8.618c0.7-0.463,1.122-1.246,1.122-2.086 v-9.279c0-0.839-0.421-1.622-1.121-2.085L16.878,0.415z M26.621,10.645l-4.821,3.237l-4.521-3.288L17.25,4.127L26.621,10.645z M13.979,4.133v6.329l-4.633,3.24l-4.621-3.099L13.979,4.133z M3.458,13.722l2.991,2.004l-2.991,2.093V13.722z M14.058,27.215 l-9.331-6.258l4.661-3.258l4.67,3.133V27.215z M12.286,15.674l3.021-2.113l3.519,2.313l-3.119,2.095L12.286,15.674z M17.354,27.215 V20.83l4.463-2.991l4.805,3.159L17.354,27.215z M27.954,17.927l-3.168-2.082l3.168-2.125V17.927z"/></symbol>

  <symbol id="email" viewBox="0 0 511.626 511.626">
  <title>email</title>
  <path d="M49.106,178.729c6.472,4.567,25.981,18.131,58.528,40.685c32.548,22.554,57.482,39.92,74.803,52.099 c1.903,1.335,5.946,4.237,12.131,8.71c6.186,4.476,11.326,8.093,15.416,10.852c4.093,2.758,9.041,5.852,14.849,9.277 c5.806,3.422,11.279,5.996,16.418,7.7c5.14,1.718,9.898,2.569,14.275,2.569h0.287h0.288c4.377,0,9.137-0.852,14.277-2.569 c5.137-1.704,10.615-4.281,16.416-7.7c5.804-3.429,10.752-6.52,14.845-9.277c4.093-2.759,9.229-6.376,15.417-10.852 c6.184-4.477,10.232-7.375,12.135-8.71c17.508-12.179,62.051-43.11,133.615-92.79c13.894-9.703,25.502-21.411,34.827-35.116 c9.332-13.699,13.993-28.07,13.993-43.105c0-12.564-4.523-23.319-13.565-32.264c-9.041-8.947-19.749-13.418-32.117-13.418H45.679 c-14.655,0-25.933,4.948-33.832,14.844C3.949,79.562,0,91.934,0,106.779c0,11.991,5.236,24.985,15.703,38.974 C26.169,159.743,37.307,170.736,49.106,178.729z"/><path d="M483.072,209.275c-62.424,42.251-109.824,75.087-142.177,98.501c-10.849,7.991-19.65,14.229-26.409,18.699 c-6.759,4.473-15.748,9.041-26.98,13.702c-11.228,4.668-21.692,6.995-31.401,6.995h-0.291h-0.287 c-9.707,0-20.177-2.327-31.405-6.995c-11.228-4.661-20.223-9.229-26.98-13.702c-6.755-4.47-15.559-10.708-26.407-18.699 c-25.697-18.842-72.995-51.68-141.896-98.501C17.987,202.047,8.375,193.762,0,184.437v226.685c0,12.57,4.471,23.319,13.418,32.265 c8.945,8.949,19.701,13.422,32.264,13.422h420.266c12.56,0,23.315-4.473,32.261-13.422c8.949-8.949,13.418-19.694,13.418-32.265 V184.437C503.441,193.569,493.927,201.854,483.072,209.275z"/></symbol>

  <symbol id="link" viewBox="0 0 512.092 512.092">
  <title>link</title>
  <g> <g> <path d="M312.453,199.601c-6.066-6.102-12.792-11.511-20.053-16.128c-19.232-12.315-41.59-18.859-64.427-18.859 c-31.697-0.059-62.106,12.535-84.48,34.987L34.949,308.23c-22.336,22.379-34.89,52.7-34.91,84.318 c-0.042,65.98,53.41,119.501,119.39,119.543c31.648,0.11,62.029-12.424,84.395-34.816l89.6-89.6 c1.628-1.614,2.537-3.816,2.524-6.108c-0.027-4.713-3.87-8.511-8.583-8.484h-3.413c-18.72,0.066-37.273-3.529-54.613-10.581 c-3.195-1.315-6.867-0.573-9.301,1.877l-64.427,64.512c-20.006,20.006-52.442,20.006-72.448,0 c-20.006-20.006-20.006-52.442,0-72.448l108.971-108.885c19.99-19.965,52.373-19.965,72.363,0 c13.472,12.679,34.486,12.679,47.957,0c5.796-5.801,9.31-13.495,9.899-21.675C322.976,216.108,319.371,206.535,312.453,199.601z"/> </g> </g><g> <g> <path d="M477.061,34.993c-46.657-46.657-122.303-46.657-168.96,0l-89.515,89.429c-2.458,2.47-3.167,6.185-1.792,9.387 c1.359,3.211,4.535,5.272,8.021,5.205h3.157c18.698-0.034,37.221,3.589,54.528,10.667c3.195,1.315,6.867,0.573,9.301-1.877 l64.256-64.171c20.006-20.006,52.442-20.006,72.448,0c20.006,20.006,20.006,52.442,0,72.448l-80.043,79.957l-0.683,0.768 l-27.989,27.819c-19.99,19.965-52.373,19.965-72.363,0c-13.472-12.679-34.486-12.679-47.957,0 c-5.833,5.845-9.35,13.606-9.899,21.845c-0.624,9.775,2.981,19.348,9.899,26.283c9.877,9.919,21.433,18.008,34.133,23.893 c1.792,0.853,3.584,1.536,5.376,2.304c1.792,0.768,3.669,1.365,5.461,2.048c1.792,0.683,3.669,1.28,5.461,1.792l5.035,1.365 c3.413,0.853,6.827,1.536,10.325,2.133c4.214,0.626,8.458,1.025,12.715,1.195h5.973h0.512l5.12-0.597 c1.877-0.085,3.84-0.512,6.059-0.512h2.901l5.888-0.853l2.731-0.512l4.949-1.024h0.939c20.961-5.265,40.101-16.118,55.381-31.403 l108.629-108.629C523.718,157.296,523.718,81.65,477.061,34.993z"/> </g> </g></symbol>

  <symbol id="fullscreen" viewBox="0 0 357 357">
  <title>fullscreen</title>
  <path d="M51,229.5H0V357h127.5v-51H51V229.5z M0,127.5h51V51h76.5V0H0V127.5z M306,306h-76.5v51H357V229.5h-51V306z M229.5,0v51 H306v76.5h51V0H229.5z"/></symbol>

  <symbol id="gotop" viewBox="0 0 444.819 444.819">
  <title>gotop</title>
  <path d="M433.968,278.657L248.387,92.79c-7.419-7.044-16.08-10.566-25.977-10.566c-10.088,0-18.652,3.521-25.697,10.566 L10.848,278.657C3.615,285.887,0,294.549,0,304.637c0,10.28,3.619,18.843,10.848,25.693l21.411,21.413 c6.854,7.23,15.42,10.852,25.697,10.852c10.278,0,18.842-3.621,25.697-10.852L222.41,213.271L361.168,351.74 c6.848,7.228,15.413,10.852,25.7,10.852c10.082,0,18.747-3.624,25.975-10.852l21.409-21.412 c7.043-7.043,10.567-15.608,10.567-25.693C444.819,294.545,441.205,285.884,433.968,278.657z"/></symbol>

</svg>
